<svg xmlns="http://www.w3.org/2000/svg" width="330" height="270" viewBox="0 0 330 270" fill="none" role="img"><style>:root{--panel:#0d0d0f;--border:#ff3d7f;--fg:#f4f4f6;--muted:#8b909a;--accent:#ff3d7f;--accent2:#ff8fb3;--track:#26262c;--skin:#c9d1d9;--ink:#0a0a0a;--g0:#26262c;--g1:#0e4429;--g2:#006d32;--g3:#26a641;--g4:#39d353}@media (prefers-color-scheme:light){:root{--panel:#ffffff;--border:#ff4d8d;--fg:#1f2328;--muted:#57606a;--accent:#d6336c;--accent2:#e8639a;--track:#eaecef;--skin:#57606a;--ink:#ffffff;--g0:#ebedf0;--g1:#9be9a8;--g2:#40c463;--g3:#30a14e;--g4:#216e39}}.f-panel{fill:var(--panel)} .f-border{fill:var(--border)} .f-fg{fill:var(--fg)} .f-muted{fill:var(--muted)} .f-accent{fill:var(--accent)} .f-accent2{fill:var(--accent2)} .f-track{fill:var(--track)} .f-skin{fill:var(--skin)} .f-ink{fill:var(--ink)} .f-g0{fill:var(--g0)} .f-g1{fill:var(--g1)} .f-g2{fill:var(--g2)} .f-g3{fill:var(--g3)} .f-g4{fill:var(--g4)} .s-panel{stroke:var(--panel)} .s-border{stroke:var(--border)} .s-fg{stroke:var(--fg)} .s-muted{stroke:var(--muted)} .s-accent{stroke:var(--accent)} .s-accent2{stroke:var(--accent2)} .s-track{stroke:var(--track)} .s-skin{stroke:var(--skin)} .s-ink{stroke:var(--ink)} .s-g0{stroke:var(--g0)} .s-g1{stroke:var(--g1)} .s-g2{stroke:var(--g2)} .s-g3{stroke:var(--g3)} .s-g4{stroke:var(--g4)}text{font-family:'JetBrains Mono','SFMono-Regular',ui-monospace,Consolas,'Liberation Mono',Menlo,monospace;}.ist{fill:none;stroke-width:1.6;stroke-linecap:round;stroke-linejoin:round}.dash{fill:none;stroke-dasharray:4 4}.lead{stroke-dasharray:1.5 4;stroke-width:1}</style><rect x="6" y="6" width="318" height="258" rx="14" fill="#0d0d0f" class="f-panel s-border" stroke="#ff3d7f" stroke-width="1.4" /><text x="24" y="36" fill="#ff3d7f" class="f-accent" font-size="11" font-weight="700" letter-spacing="2">GITHUB ACTIVITY</text><text x="52" y="58" fill="#8b909a" class="f-muted" font-size="9">Jan</text><rect x="52" y="66" width="8" height="8" rx="2" fill="#26262c" class="f-g0" /><rect x="52" y="76" width="8" height="8" rx="2" fill="#26262c" class="f-g0" /><rect x="52" y="86" width="8" height="8" rx="2" fill="#26262c" class="f-g0" /><rect x="52" y="96" width="8" height="8" rx="2" fill="#26262c" class="f-g0" /><rect x="52" y="106" width="8" height="8" rx="2" fill="#26262c" class="f-g0" /><rect x="52" y="116" width="8" height="8" rx="2" fill="#26262c" class="f-g0" /><rect x="52" y="126" width="8" height="8" rx="2" fill="#26262c" class="f-g0" /><rect x="62" y="66" width="8" height="8" rx="2" fill="#26262c" class="f-g0" /><rect x="62" y="76" width="8" height="8" rx="2" fill="#26262c" class="f-g0" /><rect x="62" y="86" width="8" height="8" rx="2" fill="#26262c" class="f-g0" /><rect x="62" y="96" width="8" height="8" rx="2" fill="#26262c" class="f-g0" /><rect x="62" y="106" width="8" height="8" rx="2" fill="#26262c" class="f-g0" /><rect x="62" y="116" width="8" height="8" rx="2" fill="#26262c" class="f-g0" /><rect x="62" y="126" width="8" height="8" rx="2" fill="#26262c" class="f-g0" /><rect x="72" y="66" width="8" height="8" rx="2" fill="#26262c" class="f-g0" /><rect x="72" y="76" width="8" height="8" rx="2" fill="#26262c" class="f-g0" /><rect x="72" y="86" width="8" height="8" rx="2" fill="#26262c" class="f-g0" /><rect x="72" y="96" width="8" height="8" rx="2" fill="#26262c" class="f-g0" /><rect x="72" y="106" width="8" height="8" rx="2" fill="#26262c" class="f-g0" /><rect x="72" y="116" width="8" height="8" rx="2" fill="#26262c" class="f-g0" /><rect x="72" y="126" width="8" height="8" rx="2" fill="#26262c" class="f-g0" /><text x="82" y="58" fill="#8b909a" class="f-muted" font-size="9">Feb</text><rect x="82" y="66" width="8" height="8" rx="2" fill="#26262c" class="f-g0" /><rect x="82" y="76" width="8" height="8" rx="2" fill="#26262c" class="f-g0" /><rect x="82" y="86" width="8" height="8" rx="2" fill="#26262c" class="f-g0" /><rect x="82" y="96" width="8" height="8" rx="2" fill="#26262c" class="f-g0" /><rect x="82" y="106" width="8" height="8" rx="2" fill="#26262c" class="f-g0" /><rect x="82" y="116" width="8" height="8" rx="2" fill="#26262c" class="f-g0" /><rect x="82" y="126" width="8" height="8" rx="2" fill="#26262c" class="f-g0" /><rect x="92" y="66" width="8" height="8" rx="2" fill="#26262c" class="f-g0" /><rect x="92" y="76" width="8" height="8" rx="2" fill="#26262c" class="f-g0" /><rect x="92" y="86" width="8" height="8" rx="2" fill="#26262c" class="f-g0" /><rect x="92" y="96" width="8" height="8" rx="2" fill="#26262c" class="f-g0" /><rect x="92" y="106" width="8" height="8" rx="2" fill="#26262c" class="f-g0" /><rect x="92" y="116" width="8" height="8" rx="2" fill="#26262c" class="f-g0" /><rect x="92" y="126" width="8" height="8" rx="2" fill="#26262c" class="f-g0" /><rect x="102" y="66" width="8" height="8" rx="2" fill="#26262c" class="f-g0" /><rect x="102" y="76" width="8" height="8" rx="2" fill="#26262c" class="f-g0" /><rect x="102" y="86" width="8" height="8" rx="2" fill="#26262c" class="f-g0" /><rect x="102" y="96" width="8" height="8" rx="2" fill="#26262c" class="f-g0" /><rect x="102" y="106" width="8" height="8" rx="2" fill="#26262c" class="f-g0" /><rect x="102" y="116" width="8" height="8" rx="2" fill="#26262c" class="f-g0" /><rect x="102" y="126" width="8" height="8" rx="2" fill="#26262c" class="f-g0" /><rect x="112" y="66" width="8" height="8" rx="2" fill="#26262c" class="f-g0" /><rect x="112" y="76" width="8" height="8" rx="2" fill="#26262c" class="f-g0" /><rect x="112" y="86" width="8" height="8" rx="2" fill="#26262c" class="f-g0" /><rect x="112" y="96" width="8" height="8" rx="2" fill="#26262c" class="f-g0" /><rect x="112" y="106" width="8" height="8" rx="2" fill="#26262c" class="f-g0" /><rect x="112" y="116" width="8" height="8" rx="2" fill="#26262c" class="f-g0" /><rect x="112" y="126" width="8" height="8" rx="2" fill="#26262c" class="f-g0" /><text x="122" y="58" fill="#8b909a" class="f-muted" font-size="9">Mar</text><rect x="122" y="66" width="8" height="8" rx="2" fill="#26262c" class="f-g0" /><rect x="122" y="76" width="8" height="8" rx="2" fill="#26262c" class="f-g0" /><rect x="122" y="86" width="8" height="8" rx="2" fill="#26262c" class="f-g0" /><rect x="122" y="96" width="8" height="8" rx="2" fill="#26262c" class="f-g0" /><rect x="122" y="106" width="8" height="8" rx="2" fill="#26262c" class="f-g0" /><rect x="122" y="116" width="8" height="8" rx="2" fill="#26262c" class="f-g0" /><rect x="122" y="126" width="8" height="8" rx="2" fill="#26262c" class="f-g0" /><rect x="132" y="66" width="8" height="8" rx="2" fill="#26262c" class="f-g0" /><rect x="132" y="76" width="8" height="8" rx="2" fill="#26262c" class="f-g0" /><rect x="132" y="86" width="8" height="8" rx="2" fill="#26262c" class="f-g0" /><rect x="132" y="96" width="8" height="8" rx="2" fill="#26262c" class="f-g0" /><rect x="132" y="106" width="8" height="8" rx="2" fill="#26262c" class="f-g0" /><rect x="132" y="116" width="8" height="8" rx="2" fill="#26262c" class="f-g0" /><rect x="132" y="126" width="8" height="8" rx="2" fill="#26262c" class="f-g0" /><rect x="142" y="66" width="8" height="8" rx="2" fill="#26262c" class="f-g0" /><rect x="142" y="76" width="8" height="8" rx="2" fill="#26262c" class="f-g0" /><rect x="142" y="86" width="8" height="8" rx="2" fill="#26262c" class="f-g0" /><rect x="142" y="96" width="8" height="8" rx="2" fill="#26262c" class="f-g0" /><rect x="142" y="106" width="8" height="8" rx="2" fill="#26262c" class="f-g0" /><rect x="142" y="116" width="8" height="8" rx="2" fill="#26262c" class="f-g0" /><rect x="142" y="126" width="8" height="8" rx="2" fill="#26262c" class="f-g0" /><rect x="152" y="66" width="8" height="8" rx="2" fill="#26262c" class="f-g0" /><rect x="152" y="76" width="8" height="8" rx="2" fill="#26262c" class="f-g0" /><rect x="152" y="86" width="8" height="8" rx="2" fill="#26262c" class="f-g0" /><rect x="152" y="96" width="8" height="8" rx="2" fill="#26262c" class="f-g0" /><rect x="152" y="106" width="8" height="8" rx="2" fill="#26262c" class="f-g0" /><rect x="152" y="116" width="8" height="8" rx="2" fill="#26262c" class="f-g0" /><rect x="152" y="126" width="8" height="8" rx="2" fill="#26262c" class="f-g0" /><rect x="162" y="66" width="8" height="8" rx="2" fill="#26262c" class="f-g0" /><rect x="162" y="76" width="8" height="8" rx="2" fill="#26262c" class="f-g0" /><rect x="162" y="86" width="8" height="8" rx="2" fill="#26262c" class="f-g0" /><rect x="162" y="96" width="8" height="8" rx="2" fill="#26262c" class="f-g0" /><rect x="162" y="106" width="8" height="8" rx="2" fill="#26262c" class="f-g0" /><rect x="162" y="116" width="8" height="8" rx="2" fill="#26262c" class="f-g0" /><rect x="162" y="126" width="8" height="8" rx="2" fill="#26262c" class="f-g0" /><text x="172" y="58" fill="#8b909a" class="f-muted" font-size="9">Apr</text><rect x="172" y="66" width="8" height="8" rx="2" fill="#26262c" class="f-g0" /><rect x="172" y="76" width="8" height="8" rx="2" fill="#26262c" class="f-g0" /><rect x="172" y="86" width="8" height="8" rx="2" fill="#26262c" class="f-g0" /><rect x="172" y="96" width="8" height="8" rx="2" fill="#26262c" class="f-g0" /><rect x="172" y="106" width="8" height="8" rx="2" fill="#26262c" class="f-g0" /><rect x="172" y="116" width="8" height="8" rx="2" fill="#26262c" class="f-g0" /><rect x="172" y="126" width="8" height="8" rx="2" fill="#26262c" class="f-g0" /><rect x="182" y="66" width="8" height="8" rx="2" fill="#26262c" class="f-g0" /><rect x="182" y="76" width="8" height="8" rx="2" fill="#26262c" class="f-g0" /><rect x="182" y="86" width="8" height="8" rx="2" fill="#26262c" class="f-g0" /><rect x="182" y="96" width="8" height="8" rx="2" fill="#26262c" class="f-g0" /><rect x="182" y="106" width="8" height="8" rx="2" fill="#26262c" class="f-g0" /><rect x="182" y="116" width="8" height="8" rx="2" fill="#26262c" class="f-g0" /><rect x="182" y="126" width="8" height="8" rx="2" fill="#26262c" class="f-g0" /><rect x="192" y="66" width="8" height="8" rx="2" fill="#26262c" class="f-g0" /><rect x="192" y="76" width="8" height="8" rx="2" fill="#26262c" class="f-g0" /><rect x="192" y="86" width="8" height="8" rx="2" fill="#26262c" class="f-g0" /><rect x="192" y="96" width="8" height="8" rx="2" fill="#26262c" class="f-g0" /><rect x="192" y="106" width="8" height="8" rx="2" fill="#26262c" class="f-g0" /><rect x="192" y="116" width="8" height="8" rx="2" fill="#26262c" class="f-g0" /><rect x="192" y="126" width="8" height="8" rx="2" fill="#26262c" class="f-g0" /><rect x="202" y="66" width="8" height="8" rx="2" fill="#26262c" class="f-g0" /><rect x="202" y="76" width="8" height="8" rx="2" fill="#26262c" class="f-g0" /><rect x="202" y="86" width="8" height="8" rx="2" fill="#26262c" class="f-g0" /><rect x="202" y="96" width="8" height="8" rx="2" fill="#26262c" class="f-g0" /><rect x="202" y="106" width="8" height="8" rx="2" fill="#26262c" class="f-g0" /><rect x="202" y="116" width="8" height="8" rx="2" fill="#26262c" class="f-g0" /><rect x="202" y="126" width="8" height="8" rx="2" fill="#26262c" class="f-g0" /><text x="212" y="58" fill="#8b909a" class="f-muted" font-size="9">May</text><rect x="212" y="66" width="8" height="8" rx="2" fill="#26262c" class="f-g0" /><rect x="212" y="76" width="8" height="8" rx="2" fill="#26262c" class="f-g0" /><rect x="212" y="86" width="8" height="8" rx="2" fill="#26262c" class="f-g0" /><rect x="212" y="96" width="8" height="8" rx="2" fill="#26262c" class="f-g0" /><rect x="212" y="106" width="8" height="8" rx="2" fill="#26262c" class="f-g0" /><rect x="212" y="116" width="8" height="8" rx="2" fill="#26262c" class="f-g0" /><rect x="212" y="126" width="8" height="8" rx="2" fill="#26262c" class="f-g0" /><rect x="222" y="66" width="8" height="8" rx="2" fill="#26262c" class="f-g0" /><rect x="222" y="76" width="8" height="8" rx="2" fill="#26262c" class="f-g0" /><rect x="222" y="86" width="8" height="8" rx="2" fill="#26262c" class="f-g0" /><rect x="222" y="96" width="8" height="8" rx="2" fill="#26262c" class="f-g0" /><rect x="222" y="106" width="8" height="8" rx="2" fill="#26262c" class="f-g0" /><rect x="222" y="116" width="8" height="8" rx="2" fill="#26262c" class="f-g0" /><rect x="222" y="126" width="8" height="8" rx="2" fill="#26262c" class="f-g0" /><rect x="232" y="66" width="8" height="8" rx="2" fill="#26262c" class="f-g0" /><rect x="232" y="76" width="8" height="8" rx="2" fill="#26262c" class="f-g0" /><rect x="232" y="86" width="8" height="8" rx="2" fill="#26262c" class="f-g0" /><rect x="232" y="96" width="8" height="8" rx="2" fill="#26262c" class="f-g0" /><rect x="232" y="106" width="8" height="8" rx="2" fill="#26262c" class="f-g0" /><rect x="232" y="116" width="8" height="8" rx="2" fill="#0e4429" class="f-g1" /><rect x="232" y="126" width="8" height="8" rx="2" fill="#26262c" class="f-g0" /><rect x="242" y="66" width="8" height="8" rx="2" fill="#26262c" class="f-g0" /><rect x="242" y="76" width="8" height="8" rx="2" fill="#26262c" class="f-g0" /><rect x="242" y="86" width="8" height="8" rx="2" fill="#26262c" class="f-g0" /><rect x="242" y="96" width="8" height="8" rx="2" fill="#26262c" class="f-g0" /><rect x="242" y="106" width="8" height="8" rx="2" fill="#26262c" class="f-g0" /><rect x="242" y="116" width="8" height="8" rx="2" fill="#26262c" class="f-g0" /><rect x="242" y="126" width="8" height="8" rx="2" fill="#26262c" class="f-g0" /><rect x="252" y="66" width="8" height="8" rx="2" fill="#26262c" class="f-g0" /><rect x="252" y="76" width="8" height="8" rx="2" fill="#26262c" class="f-g0" /><rect x="252" y="86" width="8" height="8" rx="2" fill="#26262c" class="f-g0" /><rect x="252" y="96" width="8" height="8" rx="2" fill="#26262c" class="f-g0" /><rect x="252" y="106" width="8" height="8" rx="2" fill="#26262c" class="f-g0" /><rect x="252" y="116" width="8" height="8" rx="2" fill="#26262c" class="f-g0" /><rect x="252" y="126" width="8" height="8" rx="2" fill="#26262c" class="f-g0" /><text x="262" y="58" fill="#8b909a" class="f-muted" font-size="9">Jun</text><rect x="262" y="66" width="8" height="8" rx="2" fill="#26262c" class="f-g0" /><rect x="262" y="76" width="8" height="8" rx="2" fill="#0e4429" class="f-g1" /><rect x="262" y="86" width="8" height="8" rx="2" fill="#006d32" class="f-g2" /><rect x="262" y="96" width="8" height="8" rx="2" fill="#26262c" class="f-g0" /><rect x="262" y="106" width="8" height="8" rx="2" fill="#26262c" class="f-g0" /><rect x="262" y="116" width="8" height="8" rx="2" fill="#26262c" class="f-g0" /><rect x="262" y="126" width="8" height="8" rx="2" fill="#26262c" class="f-g0" /><rect x="272" y="66" width="8" height="8" rx="2" fill="#26262c" class="f-g0" /><rect x="272" y="76" width="8" height="8" rx="2" fill="#39d353" class="f-g4" /><rect x="272" y="86" width="8" height="8" rx="2" fill="#26262c" class="f-g0" /><rect x="272" y="96" width="8" height="8" rx="2" fill="#26262c" class="f-g0" /><rect x="272" y="106" width="8" height="8" rx="2" fill="#26262c" class="f-g0" /><rect x="272" y="116" width="8" height="8" rx="2" fill="#26262c" class="f-g0" /><rect x="272" y="126" width="8" height="8" rx="2" fill="#26262c" class="f-g0" /><rect x="282" y="66" width="8" height="8" rx="2" fill="#26262c" class="f-g0" /><rect x="282" y="76" width="8" height="8" rx="2" fill="#26262c" class="f-g0" /><rect x="282" y="86" width="8" height="8" rx="2" fill="#26262c" class="f-g0" /><rect x="282" y="96" width="8" height="8" rx="2" fill="#26262c" class="f-g0" /><rect x="282" y="106" width="8" height="8" rx="2" fill="#26262c" class="f-g0" /><rect x="282" y="116" width="8" height="8" rx="2" fill="#26262c" class="f-g0" /><rect x="282" y="126" width="8" height="8" rx="2" fill="#0e4429" class="f-g1" /><rect x="292" y="66" width="8" height="8" rx="2" fill="#26a641" class="f-g3" /><rect x="292" y="76" width="8" height="8" rx="2" fill="#006d32" class="f-g2" /><rect x="292" y="86" width="8" height="8" rx="2" fill="#0e4429" class="f-g1" /><rect x="292" y="96" width="8" height="8" rx="2" fill="#26262c" class="f-g0" /><rect x="292" y="106" width="8" height="8" rx="2" fill="#26262c" class="f-g0" /><rect x="292" y="116" width="8" height="8" rx="2" fill="#26262c" class="f-g0" /><rect x="292" y="126" width="8" height="8" rx="2" fill="#26262c" class="f-g0" /><text x="302" y="58" fill="#8b909a" class="f-muted" font-size="9">Jul</text><rect x="302" y="66" width="8" height="8" rx="2" fill="#26262c" class="f-g0" /><rect x="302" y="76" width="8" height="8" rx="2" fill="#26262c" class="f-g0" /><rect x="302" y="86" width="8" height="8" rx="2" fill="#26262c" class="f-g0" /><rect x="302" y="96" width="8" height="8" rx="2" fill="#26262c" class="f-g0" /><rect x="302" y="106" width="8" height="8" rx="2" fill="#26262c" class="f-g0" /><rect x="302" y="116" width="8" height="8" rx="2" fill="#26262c" class="f-g0" /><rect x="302" y="126" width="8" height="8" rx="2" fill="#39d353" class="f-g4" /><text x="20" y="84" fill="#8b909a" class="f-muted" font-size="8">Mon</text><text x="20" y="104" fill="#8b909a" class="f-muted" font-size="8">Wed</text><text x="20" y="124" fill="#8b909a" class="f-muted" font-size="8">Fri</text><text x="52" y="158" fill="#8b909a" class="f-muted" font-size="9">Less</text><rect x="86" y="149" width="8" height="8" rx="2" fill="#26262c" class="f-g0" /><rect x="98" y="149" width="8" height="8" rx="2" fill="#0e4429" class="f-g1" /><rect x="110" y="149" width="8" height="8" rx="2" fill="#006d32" class="f-g2" /><rect x="122" y="149" width="8" height="8" rx="2" fill="#26a641" class="f-g3" /><rect x="134" y="149" width="8" height="8" rx="2" fill="#39d353" class="f-g4" /><text x="152" y="158" fill="#8b909a" class="f-muted" font-size="9">More</text><text x="165.0" y="184" fill="#f4f4f6" class="f-fg" font-size="11" text-anchor="middle">39 contributions in 2026</text></svg>
