<svg xmlns="http://www.w3.org/2000/svg" width="636" height="262" viewBox="0 0 636 262" fill="none" role="img"><style>:root{--panel:#0d0d0f;--border:#ff3d7f;--fg:#f4f4f6;--muted:#8b909a;--accent:#ff3d7f;--accent2:#ff8fb3;--track:#26262c;--skin:#c9d1d9;--ink:#0a0a0a;--g0:#26262c;--g1:#0e4429;--g2:#006d32;--g3:#26a641;--g4:#39d353}@media (prefers-color-scheme:light){:root{--panel:#ffffff;--border:#ff4d8d;--fg:#1f2328;--muted:#57606a;--accent:#d6336c;--accent2:#e8639a;--track:#eaecef;--skin:#57606a;--ink:#ffffff;--g0:#ebedf0;--g1:#9be9a8;--g2:#40c463;--g3:#30a14e;--g4:#216e39}}.f-panel{fill:var(--panel)} .f-border{fill:var(--border)} .f-fg{fill:var(--fg)} .f-muted{fill:var(--muted)} .f-accent{fill:var(--accent)} .f-accent2{fill:var(--accent2)} .f-track{fill:var(--track)} .f-skin{fill:var(--skin)} .f-ink{fill:var(--ink)} .f-g0{fill:var(--g0)} .f-g1{fill:var(--g1)} .f-g2{fill:var(--g2)} .f-g3{fill:var(--g3)} .f-g4{fill:var(--g4)} .s-panel{stroke:var(--panel)} .s-border{stroke:var(--border)} .s-fg{stroke:var(--fg)} .s-muted{stroke:var(--muted)} .s-accent{stroke:var(--accent)} .s-accent2{stroke:var(--accent2)} .s-track{stroke:var(--track)} .s-skin{stroke:var(--skin)} .s-ink{stroke:var(--ink)} .s-g0{stroke:var(--g0)} .s-g1{stroke:var(--g1)} .s-g2{stroke:var(--g2)} .s-g3{stroke:var(--g3)} .s-g4{stroke:var(--g4)}text{font-family:'JetBrains Mono','SFMono-Regular',ui-monospace,Consolas,'Liberation Mono',Menlo,monospace;}.ist{fill:none;stroke-width:1.6;stroke-linecap:round;stroke-linejoin:round}.dash{fill:none;stroke-dasharray:4 4}.lead{stroke-dasharray:1.5 4;stroke-width:1}</style><rect x="6" y="6" width="624" height="250" rx="14" fill="#0d0d0f" class="f-panel s-border" stroke="#ff3d7f" stroke-width="1.4" /><text x="34" y="60" fill="#ff3d7f" class="f-accent" font-size="30" font-weight="700">Vinaya Sri</text><text x="34" y="92" fill="#8b909a" class="f-muted" font-size="14">Senior R&amp;D Engineer @ Synopsys</text><text x="34" y="122" fill="#f4f4f6" class="f-fg" font-size="13">Building AI tools and performance systems</text><text x="34" y="142" fill="#f4f4f6" class="f-fg" font-size="13">that solve real-world problems.</text><g transform="translate(34,190) scale(0.85)"><path class="ist s-accent" stroke="#ff3d7f" d="M10 2.5 a5 5 0 0 0 -5 5 c0 3.6 5 9 5 9 s5 -5.4 5 -9 a5 5 0 0 0 -5 -5 Z"/><circle cx="10" cy="7.2" r="1.7" fill="none" stroke="#ff3d7f" class="s-accent" stroke-width="1.4"/></g><text x="58" y="204" fill="#8b909a" class="f-muted" font-size="12">Bengaluru, India  •  Coffee + Code  •  Training for 10K</text><g transform="translate(452,46)"><rect x="32" y="0" width="8" height="8" fill="#ff3d7f" class="f-accent"/><rect x="40" y="0" width="8" height="8" fill="#ff3d7f" class="f-accent"/><rect x="48" y="0" width="8" height="8" fill="#ff3d7f" class="f-accent"/><rect x="56" y="0" width="8" height="8" fill="#ff3d7f" class="f-accent"/><rect x="64" y="0" width="8" height="8" fill="#ff3d7f" class="f-accent"/><rect x="72" y="0" width="8" height="8" fill="#ff3d7f" class="f-accent"/><rect x="16" y="8" width="8" height="8" fill="#ff3d7f" class="f-accent"/><rect x="24" y="8" width="8" height="8" fill="#ff3d7f" class="f-accent"/><rect x="32" y="8" width="8" height="8" fill="#ff3d7f" class="f-accent"/><rect x="40" y="8" width="8" height="8" fill="#ff3d7f" class="f-accent"/><rect x="48" y="8" width="8" height="8" fill="#ff3d7f" class="f-accent"/><rect x="56" y="8" width="8" height="8" fill="#ff3d7f" class="f-accent"/><rect x="64" y="8" width="8" height="8" fill="#ff3d7f" class="f-accent"/><rect x="72" y="8" width="8" height="8" fill="#ff3d7f" class="f-accent"/><rect x="80" y="8" width="8" height="8" fill="#ff3d7f" class="f-accent"/><rect x="88" y="8" width="8" height="8" fill="#ff3d7f" class="f-accent"/><rect x="8" y="16" width="8" height="8" fill="#ff3d7f" class="f-accent"/><rect x="16" y="16" width="8" height="8" fill="#ff3d7f" class="f-accent"/><rect x="24" y="16" width="8" height="8" fill="#ff3d7f" class="f-accent"/><rect x="32" y="16" width="8" height="8" fill="#ff3d7f" class="f-accent"/><rect x="40" y="16" width="8" height="8" fill="#ff3d7f" class="f-accent"/><rect x="48" y="16" width="8" height="8" fill="#ff3d7f" class="f-accent"/><rect x="56" y="16" width="8" height="8" fill="#ff3d7f" class="f-accent"/><rect x="64" y="16" width="8" height="8" fill="#ff3d7f" class="f-accent"/><rect x="72" y="16" width="8" height="8" fill="#ff3d7f" class="f-accent"/><rect x="80" y="16" width="8" height="8" fill="#ff3d7f" class="f-accent"/><rect x="88" y="16" width="8" height="8" fill="#ff3d7f" class="f-accent"/><rect x="96" y="16" width="8" height="8" fill="#ff3d7f" class="f-accent"/><rect x="8" y="24" width="8" height="8" fill="#ff3d7f" class="f-accent"/><rect x="16" y="24" width="8" height="8" fill="#ff3d7f" class="f-accent"/><rect x="24" y="24" width="8" height="8" fill="#c9d1d9" class="f-skin"/><rect x="32" y="24" width="8" height="8" fill="#c9d1d9" class="f-skin"/><rect x="40" y="24" width="8" height="8" fill="#c9d1d9" class="f-skin"/><rect x="48" y="24" width="8" height="8" fill="#c9d1d9" class="f-skin"/><rect x="56" y="24" width="8" height="8" fill="#c9d1d9" class="f-skin"/><rect x="64" y="24" width="8" height="8" fill="#c9d1d9" class="f-skin"/><rect x="72" y="24" width="8" height="8" fill="#c9d1d9" class="f-skin"/><rect x="80" y="24" width="8" height="8" fill="#c9d1d9" class="f-skin"/><rect x="88" y="24" width="8" height="8" fill="#ff3d7f" class="f-accent"/><rect x="96" y="24" width="8" height="8" fill="#ff3d7f" class="f-accent"/><rect x="8" y="32" width="8" height="8" fill="#ff3d7f" class="f-accent"/><rect x="16" y="32" width="8" height="8" fill="#c9d1d9" class="f-skin"/><rect x="24" y="32" width="8" height="8" fill="#c9d1d9" class="f-skin"/><rect x="32" y="32" width="8" height="8" fill="#c9d1d9" class="f-skin"/><rect x="40" y="32" width="8" height="8" fill="#c9d1d9" class="f-skin"/><rect x="48" y="32" width="8" height="8" fill="#c9d1d9" class="f-skin"/><rect x="56" y="32" width="8" height="8" fill="#c9d1d9" class="f-skin"/><rect x="64" y="32" width="8" height="8" fill="#c9d1d9" class="f-skin"/><rect x="72" y="32" width="8" height="8" fill="#c9d1d9" class="f-skin"/><rect x="80" y="32" width="8" height="8" fill="#c9d1d9" class="f-skin"/><rect x="88" y="32" width="8" height="8" fill="#c9d1d9" class="f-skin"/><rect x="96" y="32" width="8" height="8" fill="#ff3d7f" class="f-accent"/><rect x="8" y="40" width="8" height="8" fill="#ff3d7f" class="f-accent"/><rect x="16" y="40" width="8" height="8" fill="#c9d1d9" class="f-skin"/><rect x="24" y="40" width="8" height="8" fill="#c9d1d9" class="f-skin"/><rect x="32" y="40" width="8" height="8" fill="#0a0a0a" class="f-ink"/><rect x="40" y="40" width="8" height="8" fill="#c9d1d9" class="f-skin"/><rect x="48" y="40" width="8" height="8" fill="#c9d1d9" class="f-skin"/><rect x="56" y="40" width="8" height="8" fill="#c9d1d9" class="f-skin"/><rect x="64" y="40" width="8" height="8" fill="#c9d1d9" class="f-skin"/><rect x="72" y="40" width="8" height="8" fill="#0a0a0a" class="f-ink"/><rect x="80" y="40" width="8" height="8" fill="#c9d1d9" class="f-skin"/><rect x="88" y="40" width="8" height="8" fill="#c9d1d9" class="f-skin"/><rect x="96" y="40" width="8" height="8" fill="#ff3d7f" class="f-accent"/><rect x="8" y="48" width="8" height="8" fill="#ff3d7f" class="f-accent"/><rect x="16" y="48" width="8" height="8" fill="#c9d1d9" class="f-skin"/><rect x="24" y="48" width="8" height="8" fill="#c9d1d9" class="f-skin"/><rect x="32" y="48" width="8" height="8" fill="#c9d1d9" class="f-skin"/><rect x="40" y="48" width="8" height="8" fill="#c9d1d9" class="f-skin"/><rect x="48" y="48" width="8" height="8" fill="#c9d1d9" class="f-skin"/><rect x="56" y="48" width="8" height="8" fill="#c9d1d9" class="f-skin"/><rect x="64" y="48" width="8" height="8" fill="#c9d1d9" class="f-skin"/><rect x="72" y="48" width="8" height="8" fill="#c9d1d9" class="f-skin"/><rect x="80" y="48" width="8" height="8" fill="#c9d1d9" class="f-skin"/><rect x="88" y="48" width="8" height="8" fill="#c9d1d9" class="f-skin"/><rect x="96" y="48" width="8" height="8" fill="#ff3d7f" class="f-accent"/><rect x="8" y="56" width="8" height="8" fill="#ff3d7f" class="f-accent"/><rect x="16" y="56" width="8" height="8" fill="#c9d1d9" class="f-skin"/><rect x="24" y="56" width="8" height="8" fill="#c9d1d9" class="f-skin"/><rect x="32" y="56" width="8" height="8" fill="#c9d1d9" class="f-skin"/><rect x="40" y="56" width="8" height="8" fill="#c9d1d9" class="f-skin"/><rect x="48" y="56" width="8" height="8" fill="#c9d1d9" class="f-skin"/><rect x="56" y="56" width="8" height="8" fill="#c9d1d9" class="f-skin"/><rect x="64" y="56" width="8" height="8" fill="#c9d1d9" class="f-skin"/><rect x="72" y="56" width="8" height="8" fill="#c9d1d9" class="f-skin"/><rect x="80" y="56" width="8" height="8" fill="#c9d1d9" class="f-skin"/><rect x="88" y="56" width="8" height="8" fill="#c9d1d9" class="f-skin"/><rect x="96" y="56" width="8" height="8" fill="#ff3d7f" class="f-accent"/><rect x="8" y="64" width="8" height="8" fill="#ff3d7f" class="f-accent"/><rect x="16" y="64" width="8" height="8" fill="#c9d1d9" class="f-skin"/><rect x="24" y="64" width="8" height="8" fill="#c9d1d9" class="f-skin"/><rect x="32" y="64" width="8" height="8" fill="#c9d1d9" class="f-skin"/><rect x="40" y="64" width="8" height="8" fill="#0a0a0a" class="f-ink"/><rect x="48" y="64" width="8" height="8" fill="#0a0a0a" class="f-ink"/><rect x="56" y="64" width="8" height="8" fill="#0a0a0a" class="f-ink"/><rect x="64" y="64" width="8" height="8" fill="#0a0a0a" class="f-ink"/><rect x="72" y="64" width="8" height="8" fill="#c9d1d9" class="f-skin"/><rect x="80" y="64" width="8" height="8" fill="#c9d1d9" class="f-skin"/><rect x="88" y="64" width="8" height="8" fill="#c9d1d9" class="f-skin"/><rect x="96" y="64" width="8" height="8" fill="#ff3d7f" class="f-accent"/><rect x="8" y="72" width="8" height="8" fill="#ff3d7f" class="f-accent"/><rect x="16" y="72" width="8" height="8" fill="#ff3d7f" class="f-accent"/><rect x="24" y="72" width="8" height="8" fill="#c9d1d9" class="f-skin"/><rect x="32" y="72" width="8" height="8" fill="#c9d1d9" class="f-skin"/><rect x="40" y="72" width="8" height="8" fill="#c9d1d9" class="f-skin"/><rect x="48" y="72" width="8" height="8" fill="#c9d1d9" class="f-skin"/><rect x="56" y="72" width="8" height="8" fill="#c9d1d9" class="f-skin"/><rect x="64" y="72" width="8" height="8" fill="#c9d1d9" class="f-skin"/><rect x="72" y="72" width="8" height="8" fill="#c9d1d9" class="f-skin"/><rect x="80" y="72" width="8" height="8" fill="#c9d1d9" class="f-skin"/><rect x="88" y="72" width="8" height="8" fill="#ff3d7f" class="f-accent"/><rect x="96" y="72" width="8" height="8" fill="#ff3d7f" class="f-accent"/><rect x="16" y="80" width="8" height="8" fill="#ff3d7f" class="f-accent"/><rect x="24" y="80" width="8" height="8" fill="#c9d1d9" class="f-skin"/><rect x="32" y="80" width="8" height="8" fill="#c9d1d9" class="f-skin"/><rect x="40" y="80" width="8" height="8" fill="#c9d1d9" class="f-skin"/><rect x="48" y="80" width="8" height="8" fill="#c9d1d9" class="f-skin"/><rect x="56" y="80" width="8" height="8" fill="#c9d1d9" class="f-skin"/><rect x="64" y="80" width="8" height="8" fill="#c9d1d9" class="f-skin"/><rect x="72" y="80" width="8" height="8" fill="#c9d1d9" class="f-skin"/><rect x="80" y="80" width="8" height="8" fill="#c9d1d9" class="f-skin"/><rect x="88" y="80" width="8" height="8" fill="#ff3d7f" class="f-accent"/><rect x="32" y="88" width="8" height="8" fill="#c9d1d9" class="f-skin"/><rect x="40" y="88" width="8" height="8" fill="#c9d1d9" class="f-skin"/><rect x="48" y="88" width="8" height="8" fill="#c9d1d9" class="f-skin"/><rect x="56" y="88" width="8" height="8" fill="#c9d1d9" class="f-skin"/><rect x="64" y="88" width="8" height="8" fill="#c9d1d9" class="f-skin"/><rect x="72" y="88" width="8" height="8" fill="#c9d1d9" class="f-skin"/><rect x="24" y="96" width="8" height="8" fill="#8b909a" class="f-muted"/><rect x="32" y="96" width="8" height="8" fill="#8b909a" class="f-muted"/><rect x="40" y="96" width="8" height="8" fill="#8b909a" class="f-muted"/><rect x="48" y="96" width="8" height="8" fill="#8b909a" class="f-muted"/><rect x="56" y="96" width="8" height="8" fill="#8b909a" class="f-muted"/><rect x="64" y="96" width="8" height="8" fill="#8b909a" class="f-muted"/><rect x="72" y="96" width="8" height="8" fill="#8b909a" class="f-muted"/><rect x="80" y="96" width="8" height="8" fill="#8b909a" class="f-muted"/><rect x="16" y="104" width="8" height="8" fill="#8b909a" class="f-muted"/><rect x="24" y="104" width="8" height="8" fill="#8b909a" class="f-muted"/><rect x="32" y="104" width="8" height="8" fill="#8b909a" class="f-muted"/><rect x="40" y="104" width="8" height="8" fill="#8b909a" class="f-muted"/><rect x="48" y="104" width="8" height="8" fill="#8b909a" class="f-muted"/><rect x="56" y="104" width="8" height="8" fill="#8b909a" class="f-muted"/><rect x="64" y="104" width="8" height="8" fill="#8b909a" class="f-muted"/><rect x="72" y="104" width="8" height="8" fill="#8b909a" class="f-muted"/><rect x="80" y="104" width="8" height="8" fill="#8b909a" class="f-muted"/><rect x="88" y="104" width="8" height="8" fill="#8b909a" class="f-muted"/><rect x="8" y="112" width="8" height="8" fill="#8b909a" class="f-muted"/><rect x="16" y="112" width="8" height="8" fill="#8b909a" class="f-muted"/><rect x="24" y="112" width="8" height="8" fill="#8b909a" class="f-muted"/><rect x="32" y="112" width="8" height="8" fill="#8b909a" class="f-muted"/><rect x="40" y="112" width="8" height="8" fill="#8b909a" class="f-muted"/><rect x="48" y="112" width="8" height="8" fill="#8b909a" class="f-muted"/><rect x="56" y="112" width="8" height="8" fill="#8b909a" class="f-muted"/><rect x="64" y="112" width="8" height="8" fill="#8b909a" class="f-muted"/><rect x="72" y="112" width="8" height="8" fill="#8b909a" class="f-muted"/><rect x="80" y="112" width="8" height="8" fill="#8b909a" class="f-muted"/><rect x="88" y="112" width="8" height="8" fill="#8b909a" class="f-muted"/><rect x="96" y="112" width="8" height="8" fill="#8b909a" class="f-muted"/><rect x="8" y="120" width="8" height="8" fill="#8b909a" class="f-muted"/><rect x="16" y="120" width="8" height="8" fill="#8b909a" class="f-muted"/><rect x="40" y="120" width="8" height="8" fill="#8b909a" class="f-muted"/><rect x="48" y="120" width="8" height="8" fill="#8b909a" class="f-muted"/><rect x="56" y="120" width="8" height="8" fill="#8b909a" class="f-muted"/><rect x="64" y="120" width="8" height="8" fill="#8b909a" class="f-muted"/><rect x="88" y="120" width="8" height="8" fill="#8b909a" class="f-muted"/><rect x="96" y="120" width="8" height="8" fill="#8b909a" class="f-muted"/><g transform="translate(-14,26)"><line x1="0" y1="-5" x2="0" y2="5" stroke="#ff8fb3" class="s-accent2 ist" stroke-width="1.6"/><line x1="-5" y1="0" x2="5" y2="0" stroke="#ff8fb3" class="s-accent2 ist" stroke-width="1.6"/></g><g transform="translate(128,16)"><line x1="0" y1="-6" x2="0" y2="6" stroke="#ff8fb3" class="s-accent2 ist" stroke-width="1.6"/><line x1="-6" y1="0" x2="6" y2="0" stroke="#ff8fb3" class="s-accent2 ist" stroke-width="1.6"/></g><g transform="translate(120,96)"><line x1="0" y1="-4" x2="0" y2="4" stroke="#ff8fb3" class="s-accent2 ist" stroke-width="1.6"/><line x1="-4" y1="0" x2="4" y2="0" stroke="#ff8fb3" class="s-accent2 ist" stroke-width="1.6"/></g></g></svg>
