<svg xmlns="http://www.w3.org/2000/svg" width="316" height="270" viewBox="0 0 316 270" fill="none" role="img"><style>:root{--panel:#0d0d0f;--border:#ff3d7f;--fg:#f4f4f6;--muted:#8b909a;--accent:#ff3d7f;--accent2:#ff8fb3;--track:#26262c;--skin:#c9d1d9;--ink:#0a0a0a;--g0:#26262c;--g1:#0e4429;--g2:#006d32;--g3:#26a641;--g4:#39d353}@media (prefers-color-scheme:light){:root{--panel:#ffffff;--border:#ff4d8d;--fg:#1f2328;--muted:#57606a;--accent:#d6336c;--accent2:#e8639a;--track:#eaecef;--skin:#57606a;--ink:#ffffff;--g0:#ebedf0;--g1:#9be9a8;--g2:#40c463;--g3:#30a14e;--g4:#216e39}}.f-panel{fill:var(--panel)} .f-border{fill:var(--border)} .f-fg{fill:var(--fg)} .f-muted{fill:var(--muted)} .f-accent{fill:var(--accent)} .f-accent2{fill:var(--accent2)} .f-track{fill:var(--track)} .f-skin{fill:var(--skin)} .f-ink{fill:var(--ink)} .f-g0{fill:var(--g0)} .f-g1{fill:var(--g1)} .f-g2{fill:var(--g2)} .f-g3{fill:var(--g3)} .f-g4{fill:var(--g4)} .s-panel{stroke:var(--panel)} .s-border{stroke:var(--border)} .s-fg{stroke:var(--fg)} .s-muted{stroke:var(--muted)} .s-accent{stroke:var(--accent)} .s-accent2{stroke:var(--accent2)} .s-track{stroke:var(--track)} .s-skin{stroke:var(--skin)} .s-ink{stroke:var(--ink)} .s-g0{stroke:var(--g0)} .s-g1{stroke:var(--g1)} .s-g2{stroke:var(--g2)} .s-g3{stroke:var(--g3)} .s-g4{stroke:var(--g4)}text{font-family:'JetBrains Mono','SFMono-Regular',ui-monospace,Consolas,'Liberation Mono',Menlo,monospace;}.ist{fill:none;stroke-width:1.6;stroke-linecap:round;stroke-linejoin:round}.dash{fill:none;stroke-dasharray:4 4}.lead{stroke-dasharray:1.5 4;stroke-width:1}</style><rect x="6" y="6" width="304" height="258" rx="14" fill="#0d0d0f" class="f-panel s-border" stroke="#ff3d7f" stroke-width="1.4" /><text x="24" y="36" fill="#ff3d7f" class="f-accent" font-size="11" font-weight="700" letter-spacing="2">CONNECT</text><g transform="translate(24,46) scale(0.9)"><rect x="3" y="3" width="14" height="14" rx="2.5" fill="none" stroke="#ff3d7f" class="s-accent ist"/><circle cx="6.4" cy="6.6" r="1.1" fill="#ff3d7f" class="f-accent"/><rect x="5.5" y="8.8" width="1.8" height="5.4" fill="#ff3d7f" class="f-accent"/><path class="f-accent" fill="#ff3d7f" d="M9.6 14.2 V8.8 h1.7 v.8 c.4-.6 1-.9 1.9-.9 1.4 0 2.3 .9 2.3 2.8 v2.7 h-1.8 v-2.6 c0-.8-.3-1.3-1-1.3 -.7 0-1 .5-1 1.3 v2.6 Z"/></g><text x="52" y="60" fill="#f4f4f6" class="f-fg" font-size="11">linkedin.com/in/vinaya-sri</text><g transform="translate(24,74) scale(0.9)"><rect x="3" y="5" width="14" height="10" rx="1.8" fill="none" stroke="#ff3d7f" class="s-accent ist"/><path class="ist s-accent" stroke="#ff3d7f" d="M3.6 6.2 L10 11 L16.4 6.2"/></g><text x="52" y="88" fill="#f4f4f6" class="f-fg" font-size="11">vinayasri22@gmail.com</text><g transform="translate(24,102) scale(0.9)"><path class="ist s-accent" stroke="#ff3d7f" d="M9 11 a3 3 0 0 1 0 -4 l1.5 -1.5 a3 3 0 0 1 4 4 L13 11"/><path class="ist s-accent" stroke="#ff3d7f" d="M11 9 a3 3 0 0 1 0 4 l-1.5 1.5 a3 3 0 0 1 -4 -4 L7 9"/></g><text x="52" y="116" fill="#f4f4f6" class="f-fg" font-size="11">vinayasri.dev</text><g transform="translate(24,130) scale(0.9)"><path class="ist s-accent" stroke="#ff3d7f" d="M10 2.5 a5 5 0 0 0 -5 5 c0 3.6 5 9 5 9 s5 -5.4 5 -9 a5 5 0 0 0 -5 -5 Z"/><circle cx="10" cy="7.2" r="1.7" fill="none" stroke="#ff3d7f" class="s-accent" stroke-width="1.4"/></g><text x="52" y="144" fill="#f4f4f6" class="f-fg" font-size="11">Bengaluru, India</text><line x1="20" y1="170" x2="296" y2="170" stroke="#26262c" class="s-track dash" stroke-width="1"/><rect x="16" y="182" width="284" height="74" rx="10" fill="#0d0d0f" class="f-panel s-border dash" stroke="#ff3d7f" stroke-width="1" /><text x="158.0" y="208" fill="#f4f4f6" class="f-fg" font-size="10.5" text-anchor="middle" font-style="italic">Fix the cause, not the symptom.</text><text x="158.0" y="244" fill="#ff3d7f" class="f-accent" font-size="10" text-anchor="middle">— Steve Maguire</text></svg>
