<svg xmlns="http://www.w3.org/2000/svg" width="316" height="270" viewBox="0 0 316 270" fill="none" role="img"><style>:root{--panel:#0d0d0f;--border:#ff3d7f;--fg:#f4f4f6;--muted:#8b909a;--accent:#ff3d7f;--accent2:#ff8fb3;--track:#26262c;--skin:#c9d1d9;--ink:#0a0a0a;--g0:#26262c;--g1:#0e4429;--g2:#006d32;--g3:#26a641;--g4:#39d353}@media (prefers-color-scheme:light){:root{--panel:#ffffff;--border:#ff4d8d;--fg:#1f2328;--muted:#57606a;--accent:#d6336c;--accent2:#e8639a;--track:#eaecef;--skin:#57606a;--ink:#ffffff;--g0:#ebedf0;--g1:#9be9a8;--g2:#40c463;--g3:#30a14e;--g4:#216e39}}.f-panel{fill:var(--panel)} .f-border{fill:var(--border)} .f-fg{fill:var(--fg)} .f-muted{fill:var(--muted)} .f-accent{fill:var(--accent)} .f-accent2{fill:var(--accent2)} .f-track{fill:var(--track)} .f-skin{fill:var(--skin)} .f-ink{fill:var(--ink)} .f-g0{fill:var(--g0)} .f-g1{fill:var(--g1)} .f-g2{fill:var(--g2)} .f-g3{fill:var(--g3)} .f-g4{fill:var(--g4)} .s-panel{stroke:var(--panel)} .s-border{stroke:var(--border)} .s-fg{stroke:var(--fg)} .s-muted{stroke:var(--muted)} .s-accent{stroke:var(--accent)} .s-accent2{stroke:var(--accent2)} .s-track{stroke:var(--track)} .s-skin{stroke:var(--skin)} .s-ink{stroke:var(--ink)} .s-g0{stroke:var(--g0)} .s-g1{stroke:var(--g1)} .s-g2{stroke:var(--g2)} .s-g3{stroke:var(--g3)} .s-g4{stroke:var(--g4)}text{font-family:'JetBrains Mono','SFMono-Regular',ui-monospace,Consolas,'Liberation Mono',Menlo,monospace;}.ist{fill:none;stroke-width:1.6;stroke-linecap:round;stroke-linejoin:round}.dash{fill:none;stroke-dasharray:4 4}.lead{stroke-dasharray:1.5 4;stroke-width:1}</style><rect x="6" y="6" width="304" height="258" rx="14" fill="#0d0d0f" class="f-panel s-border" stroke="#ff3d7f" stroke-width="1.4" /><text x="24" y="36" fill="#ff3d7f" class="f-accent" font-size="11" font-weight="700" letter-spacing="2">LEARNING JOURNEY</text><text x="24" y="62" fill="#f4f4f6" class="f-fg" font-size="10.5">Python</text><rect x="148" y="53" width="8" height="11" rx="2" fill="#ff3d7f" class="f-accent" /><rect x="158" y="53" width="8" height="11" rx="2" fill="#ff3d7f" class="f-accent" /><rect x="168" y="53" width="8" height="11" rx="2" fill="#ff3d7f" class="f-accent" /><rect x="178" y="53" width="8" height="11" rx="2" fill="#ff3d7f" class="f-accent" /><rect x="188" y="53" width="8" height="11" rx="2" fill="#ff3d7f" class="f-accent" /><rect x="198" y="53" width="8" height="11" rx="2" fill="#ff3d7f" class="f-accent" /><rect x="208" y="53" width="8" height="11" rx="2" fill="#ff3d7f" class="f-accent" /><rect x="218" y="53" width="8" height="11" rx="2" fill="#ff3d7f" class="f-accent" /><rect x="228" y="53" width="8" height="11" rx="2" fill="#ff3d7f" class="f-accent" /><rect x="238" y="53" width="8" height="11" rx="2" fill="#26262c" class="f-track" /><text x="296" y="62" fill="#ff3d7f" class="f-accent" font-size="10.5" font-weight="700" text-anchor="end">90%</text><text x="24" y="89" fill="#f4f4f6" class="f-fg" font-size="10.5">Machine Learning</text><rect x="148" y="80" width="8" height="11" rx="2" fill="#ff3d7f" class="f-accent" /><rect x="158" y="80" width="8" height="11" rx="2" fill="#ff3d7f" class="f-accent" /><rect x="168" y="80" width="8" height="11" rx="2" fill="#ff3d7f" class="f-accent" /><rect x="178" y="80" width="8" height="11" rx="2" fill="#ff3d7f" class="f-accent" /><rect x="188" y="80" width="8" height="11" rx="2" fill="#ff3d7f" class="f-accent" /><rect x="198" y="80" width="8" height="11" rx="2" fill="#ff3d7f" class="f-accent" /><rect x="208" y="80" width="8" height="11" rx="2" fill="#ff3d7f" class="f-accent" /><rect x="218" y="80" width="8" height="11" rx="2" fill="#26262c" class="f-track" /><rect x="228" y="80" width="8" height="11" rx="2" fill="#26262c" class="f-track" /><rect x="238" y="80" width="8" height="11" rx="2" fill="#26262c" class="f-track" /><text x="296" y="89" fill="#ff3d7f" class="f-accent" font-size="10.5" font-weight="700" text-anchor="end">70%</text><text x="24" y="116" fill="#f4f4f6" class="f-fg" font-size="10.5">FastAPI</text><rect x="148" y="107" width="8" height="11" rx="2" fill="#ff3d7f" class="f-accent" /><rect x="158" y="107" width="8" height="11" rx="2" fill="#ff3d7f" class="f-accent" /><rect x="168" y="107" width="8" height="11" rx="2" fill="#ff3d7f" class="f-accent" /><rect x="178" y="107" width="8" height="11" rx="2" fill="#ff3d7f" class="f-accent" /><rect x="188" y="107" width="8" height="11" rx="2" fill="#ff3d7f" class="f-accent" /><rect x="198" y="107" width="8" height="11" rx="2" fill="#ff3d7f" class="f-accent" /><rect x="208" y="107" width="8" height="11" rx="2" fill="#26262c" class="f-track" /><rect x="218" y="107" width="8" height="11" rx="2" fill="#26262c" class="f-track" /><rect x="228" y="107" width="8" height="11" rx="2" fill="#26262c" class="f-track" /><rect x="238" y="107" width="8" height="11" rx="2" fill="#26262c" class="f-track" /><text x="296" y="116" fill="#ff3d7f" class="f-accent" font-size="10.5" font-weight="700" text-anchor="end">60%</text><text x="24" y="143" fill="#f4f4f6" class="f-fg" font-size="10.5">RAG</text><rect x="148" y="134" width="8" height="11" rx="2" fill="#ff3d7f" class="f-accent" /><rect x="158" y="134" width="8" height="11" rx="2" fill="#ff3d7f" class="f-accent" /><rect x="168" y="134" width="8" height="11" rx="2" fill="#ff3d7f" class="f-accent" /><rect x="178" y="134" width="8" height="11" rx="2" fill="#ff3d7f" class="f-accent" /><rect x="188" y="134" width="8" height="11" rx="2" fill="#26262c" class="f-track" /><rect x="198" y="134" width="8" height="11" rx="2" fill="#26262c" class="f-track" /><rect x="208" y="134" width="8" height="11" rx="2" fill="#26262c" class="f-track" /><rect x="218" y="134" width="8" height="11" rx="2" fill="#26262c" class="f-track" /><rect x="228" y="134" width="8" height="11" rx="2" fill="#26262c" class="f-track" /><rect x="238" y="134" width="8" height="11" rx="2" fill="#26262c" class="f-track" /><text x="296" y="143" fill="#ff3d7f" class="f-accent" font-size="10.5" font-weight="700" text-anchor="end">40%</text><text x="24" y="170" fill="#f4f4f6" class="f-fg" font-size="10.5">Agents</text><rect x="148" y="161" width="8" height="11" rx="2" fill="#ff3d7f" class="f-accent" /><rect x="158" y="161" width="8" height="11" rx="2" fill="#ff3d7f" class="f-accent" /><rect x="168" y="161" width="8" height="11" rx="2" fill="#ff3d7f" class="f-accent" /><rect x="178" y="161" width="8" height="11" rx="2" fill="#26262c" class="f-track" /><rect x="188" y="161" width="8" height="11" rx="2" fill="#26262c" class="f-track" /><rect x="198" y="161" width="8" height="11" rx="2" fill="#26262c" class="f-track" /><rect x="208" y="161" width="8" height="11" rx="2" fill="#26262c" class="f-track" /><rect x="218" y="161" width="8" height="11" rx="2" fill="#26262c" class="f-track" /><rect x="228" y="161" width="8" height="11" rx="2" fill="#26262c" class="f-track" /><rect x="238" y="161" width="8" height="11" rx="2" fill="#26262c" class="f-track" /><text x="296" y="170" fill="#ff3d7f" class="f-accent" font-size="10.5" font-weight="700" text-anchor="end">30%</text><text x="24" y="197" fill="#f4f4f6" class="f-fg" font-size="10.5">MCP</text><rect x="148" y="188" width="8" height="11" rx="2" fill="#ff3d7f" class="f-accent" /><rect x="158" y="188" width="8" height="11" rx="2" fill="#ff3d7f" class="f-accent" /><rect x="168" y="188" width="8" height="11" rx="2" fill="#26262c" class="f-track" /><rect x="178" y="188" width="8" height="11" rx="2" fill="#26262c" class="f-track" /><rect x="188" y="188" width="8" height="11" rx="2" fill="#26262c" class="f-track" /><rect x="198" y="188" width="8" height="11" rx="2" fill="#26262c" class="f-track" /><rect x="208" y="188" width="8" height="11" rx="2" fill="#26262c" class="f-track" /><rect x="218" y="188" width="8" height="11" rx="2" fill="#26262c" class="f-track" /><rect x="228" y="188" width="8" height="11" rx="2" fill="#26262c" class="f-track" /><rect x="238" y="188" width="8" height="11" rx="2" fill="#26262c" class="f-track" /><text x="296" y="197" fill="#ff3d7f" class="f-accent" font-size="10.5" font-weight="700" text-anchor="end">25%</text><text x="158.0" y="232" fill="#8b909a" class="f-muted" font-size="9.5" text-anchor="middle" font-style="italic">Every day I try to learn, build and ship</text><text x="158.0" y="247" fill="#8b909a" class="f-muted" font-size="9.5" text-anchor="middle" font-style="italic">something that makes me a better engineer.</text></svg>
