<svg xmlns="http://www.w3.org/2000/svg" width="486" height="300" viewBox="0 0 486 300" fill="none" role="img"><style>:root{--panel:#0d0d0f;--border:#ff3d7f;--fg:#f4f4f6;--muted:#8b909a;--accent:#ff3d7f;--accent2:#ff8fb3;--track:#26262c;--skin:#c9d1d9;--ink:#0a0a0a;--g0:#26262c;--g1:#0e4429;--g2:#006d32;--g3:#26a641;--g4:#39d353}@media (prefers-color-scheme:light){:root{--panel:#ffffff;--border:#ff4d8d;--fg:#1f2328;--muted:#57606a;--accent:#d6336c;--accent2:#e8639a;--track:#eaecef;--skin:#57606a;--ink:#ffffff;--g0:#ebedf0;--g1:#9be9a8;--g2:#40c463;--g3:#30a14e;--g4:#216e39}}.f-panel{fill:var(--panel)} .f-border{fill:var(--border)} .f-fg{fill:var(--fg)} .f-muted{fill:var(--muted)} .f-accent{fill:var(--accent)} .f-accent2{fill:var(--accent2)} .f-track{fill:var(--track)} .f-skin{fill:var(--skin)} .f-ink{fill:var(--ink)} .f-g0{fill:var(--g0)} .f-g1{fill:var(--g1)} .f-g2{fill:var(--g2)} .f-g3{fill:var(--g3)} .f-g4{fill:var(--g4)} .s-panel{stroke:var(--panel)} .s-border{stroke:var(--border)} .s-fg{stroke:var(--fg)} .s-muted{stroke:var(--muted)} .s-accent{stroke:var(--accent)} .s-accent2{stroke:var(--accent2)} .s-track{stroke:var(--track)} .s-skin{stroke:var(--skin)} .s-ink{stroke:var(--ink)} .s-g0{stroke:var(--g0)} .s-g1{stroke:var(--g1)} .s-g2{stroke:var(--g2)} .s-g3{stroke:var(--g3)} .s-g4{stroke:var(--g4)}text{font-family:'JetBrains Mono','SFMono-Regular',ui-monospace,Consolas,'Liberation Mono',Menlo,monospace;}.ist{fill:none;stroke-width:1.6;stroke-linecap:round;stroke-linejoin:round}.dash{fill:none;stroke-dasharray:4 4}.lead{stroke-dasharray:1.5 4;stroke-width:1}</style><rect x="6" y="6" width="474" height="288" rx="14" fill="#0d0d0f" class="f-panel s-border" stroke="#ff3d7f" stroke-width="1.4" /><text x="24" y="36" fill="#ff3d7f" class="f-accent" font-size="11" font-weight="700" letter-spacing="2">TECH STACK</text><g transform="translate(24,54) scale(0.95)"><path class="ist s-accent" stroke="#ff3d7f" d="M7 6 L3 10 L7 14"/><path class="ist s-accent" stroke="#ff3d7f" d="M13 6 L17 10 L13 14"/></g><text x="56" y="68" fill="#f4f4f6" class="f-fg" font-size="12" font-weight="700">Languages</text><text x="150" y="68" fill="#8b909a" class="f-muted" font-size="12">:</text><text x="168" y="68" fill="#8b909a" class="f-muted" font-size="12">C++   Python   TypeScript   SQL</text><g transform="translate(24,91) scale(0.95)"><rect x="3" y="4" width="14" height="5" rx="1.5" fill="none" stroke="#ff3d7f" class="s-accent ist"/><rect x="3" y="11" width="14" height="5" rx="1.5" fill="none" stroke="#ff3d7f" class="s-accent ist"/><circle cx="6" cy="6.5" r="1" fill="#ff3d7f" class="f-accent"/><circle cx="6" cy="13.5" r="1" fill="#ff3d7f" class="f-accent"/></g><text x="56" y="105" fill="#f4f4f6" class="f-fg" font-size="12" font-weight="700">Backend</text><text x="150" y="105" fill="#8b909a" class="f-muted" font-size="12">:</text><text x="168" y="105" fill="#8b909a" class="f-muted" font-size="12">FastAPI   Node.js</text><g transform="translate(24,128) scale(0.95)"><rect x="3" y="4" width="14" height="12" rx="1.5" fill="none" stroke="#ff3d7f" class="s-accent ist"/><line x1="3" y1="8" x2="17" y2="8" stroke="#ff3d7f" class="s-accent ist" stroke-width="1.6"/><circle cx="6" cy="6" r="0.9" fill="#ff3d7f" class="f-accent"/></g><text x="56" y="142" fill="#f4f4f6" class="f-fg" font-size="12" font-weight="700">Frontend</text><text x="150" y="142" fill="#8b909a" class="f-muted" font-size="12">:</text><text x="168" y="142" fill="#8b909a" class="f-muted" font-size="12">React   Tailwind CSS</text><g transform="translate(24,165) scale(0.95)"><ellipse cx="10" cy="5" rx="6" ry="2.4" fill="none" stroke="#ff3d7f" class="s-accent ist"/><path class="ist s-accent" stroke="#ff3d7f" d="M4 5 V15 c0 1.3 2.7 2.4 6 2.4 s6 -1.1 6 -2.4 V5"/><path class="ist s-accent" stroke="#ff3d7f" d="M4 10 c0 1.3 2.7 2.4 6 2.4 s6 -1.1 6 -2.4"/></g><text x="56" y="179" fill="#f4f4f6" class="f-fg" font-size="12" font-weight="700">Databases</text><text x="150" y="179" fill="#8b909a" class="f-muted" font-size="12">:</text><text x="168" y="179" fill="#8b909a" class="f-muted" font-size="12">PostgreSQL   MongoDB</text><g transform="translate(24,202) scale(0.95)"><path class="ist s-accent" stroke="#ff3d7f" d="M14.5 3.5 a3.4 3.4 0 0 0 -4.4 4.4 L4 14 l2 2 6.1 -6.1 a3.4 3.4 0 0 0 4.4 -4.4 l-2.1 2.1 -1.9 -1.9 Z"/></g><text x="56" y="216" fill="#f4f4f6" class="f-fg" font-size="12" font-weight="700">Tools</text><text x="150" y="216" fill="#8b909a" class="f-muted" font-size="12">:</text><text x="168" y="216" fill="#8b909a" class="f-muted" font-size="12">Docker   Git   Linux</text><g transform="translate(24,239) scale(0.95)"><circle cx="10" cy="10" r="7" fill="none" stroke="#ff3d7f" class="s-accent" stroke-width="1.4"/><ellipse cx="10" cy="10" rx="3" ry="7" fill="none" stroke="#ff3d7f" class="s-accent ist"/><line x1="3" y1="10" x2="17" y2="10" stroke="#ff3d7f" class="s-accent ist" stroke-width="1.6"/></g><text x="56" y="253" fill="#f4f4f6" class="f-fg" font-size="12" font-weight="700">AI/ML</text><text x="150" y="253" fill="#8b909a" class="f-muted" font-size="12">:</text><text x="168" y="253" fill="#8b909a" class="f-muted" font-size="12">Transformers   LangChain   FAISS</text></svg>
